<svg width="100" height="70" viewBox="0 0 100 70" fill="none" xmlns="http://www.w3.org/2000/svg">
<g opacity="0.8" clip-path="url(#clip0_17_1374)">
<path d="M99.0802 42.1184V16.8457C99.0802 7.54192 91.9333 0 83.117 0H82.2862V19.7941C79.9247 18.9896 77.4063 18.5523 74.7894 18.5523C69.0425 18.5523 63.7624 20.6517 59.5945 24.1626L48.1391 33.3772V16.8457C48.1411 7.54192 40.9943 0 32.1779 0H31.3471V19.6222C29.1385 18.928 26.7991 18.5523 24.3753 18.5523C10.9144 18.5523 0 30.07 0 44.2772C0 58.4844 10.9144 70 24.3753 70C29.1566 70 33.6161 68.546 37.3796 66.0369C40.1092 68.3316 43.5629 69.7049 47.3224 69.7049H48.1391V55.8141L51.806 52.8635C55.1552 62.8465 64.1807 70 74.7894 70C79.6934 70 84.2595 68.4695 88.0833 65.8395C90.8471 68.253 94.3934 69.7049 98.2615 69.7049H99.0782V46.436C99.1345 45.7249 99.1646 45.0032 99.1646 44.2772C99.1646 43.5513 99.1345 42.8295 99.0782 42.1184H99.0802ZM34.5454 48.1405C30.4661 51.004 28.2675 51.6154 27.6621 51.7724C27.125 51.9125 26.6121 52.0123 26.1213 52.0802C25.5822 52.2097 25.023 52.2798 24.4477 52.2798C23.5928 52.2798 22.7721 52.1269 22.0037 51.851C21.9816 51.8446 21.9575 51.8382 21.9353 51.8319H21.9414C18.9986 50.7387 16.8885 47.7818 16.8885 44.3048C16.8885 39.9002 20.2718 36.3299 24.4457 36.3299C28.6195 36.3299 32.0029 39.9002 32.0029 44.3048C32.0029 45.6994 31.6629 47.0091 31.0675 48.1511C31.8601 47.8221 32.7672 47.3297 33.9701 46.7289C38.4437 44.4937 44.3876 38.0514 44.5083 38.2169C44.6411 38.3995 38.3351 45.4765 34.5434 48.1405H34.5454ZM74.729 52.2776C70.5552 52.2776 67.1718 48.7073 67.1718 44.3027C67.1718 42.9081 67.5118 41.5984 68.1072 40.4564C67.3147 40.7854 66.4075 41.2779 65.2046 41.8786C60.731 44.1138 58.2509 46.281 58.1302 46.1155C57.9974 45.9329 60.8376 43.1288 64.6313 40.4649C68.7106 37.6014 70.9092 36.99 71.5147 36.8329C72.0517 36.6928 72.5647 36.5931 73.0555 36.5252C73.5945 36.3957 74.1537 36.3256 74.729 36.3256C75.5839 36.3256 76.4046 36.4785 77.173 36.7544C77.1951 36.7608 77.2193 36.7671 77.2414 36.7735H77.2353C80.1782 37.8667 82.2882 40.8236 82.2882 44.3006C82.2882 48.7052 78.9049 52.2755 74.731 52.2755L74.729 52.2776Z" fill="white"/>
</g>
<defs>
<clipPath id="clip0_17_1374">
<rect width="99.1667" height="70" fill="white"/>
</clipPath>
</defs>
</svg>
